<svg xmlns="http://www.w3.org/2000/svg" width="1200" height="630" viewBox="0 0 1200 630" role="img" aria-labelledby="title desc">
  <title id="title">CSSFinds CSSBuy Spreadsheet</title>
  <desc id="desc">CSSFinds preview card for CSSBuy spreadsheet finds, QC photos, product categories, and updated product links.</desc>
  <rect width="1200" height="630" fill="#f8f4e8"/>
  <rect x="72" y="72" width="1056" height="486" rx="24" fill="#fffdf7" stroke="#1d2636" stroke-width="4"/>
  <circle cx="156" cy="158" r="58" fill="#ffeb21" stroke="#ff2d2d" stroke-width="8"/>
  <path d="M120 152c28-15 61-15 88 0M118 177c31 12 62 12 92 0" fill="none" stroke="#1f8a3b" stroke-width="5" stroke-linecap="round"/>
  <text x="156" y="148" text-anchor="middle" font-family="Arial, Helvetica, sans-serif" font-size="30" font-weight="900" fill="#101828">Css</text>
  <text x="156" y="180" text-anchor="middle" font-family="Arial, Helvetica, sans-serif" font-size="29" font-weight="900" font-style="italic" fill="#101828">Finds</text>
  <text x="250" y="165" font-family="Arial, Helvetica, sans-serif" font-size="62" font-weight="900" fill="#101828">CSSFinds</text>
  <text x="250" y="238" font-family="Arial, Helvetica, sans-serif" font-size="42" font-weight="800" fill="#2f3a4a">CSSBuy Spreadsheet 2026</text>
  <text x="250" y="304" font-family="Arial, Helvetica, sans-serif" font-size="30" font-weight="700" fill="#596173">Finds, QC photos, prices, categories, and product links</text>
  <g font-family="Arial, Helvetica, sans-serif" font-size="25" font-weight="800">
    <rect x="250" y="370" width="128" height="54" rx="10" fill="#101828"/>
    <text x="314" y="405" text-anchor="middle" fill="#ffffff">Shoes</text>
    <rect x="394" y="370" width="142" height="54" rx="10" fill="#eaf3f0" stroke="#90b7aa"/>
    <text x="465" y="405" text-anchor="middle" fill="#205c4a">Hoodies</text>
    <rect x="552" y="370" width="138" height="54" rx="10" fill="#fff4d6" stroke="#d0a83a"/>
    <text x="621" y="405" text-anchor="middle" fill="#795b00">QC ready</text>
    <rect x="706" y="370" width="170" height="54" rx="10" fill="#eef2ff" stroke="#a0a9d6"/>
    <text x="791" y="405" text-anchor="middle" fill="#39416b">Categories</text>
  </g>
  <text x="250" y="492" font-family="Arial, Helvetica, sans-serif" font-size="26" font-weight="700" fill="#596173">cssfinds.com</text>
</svg>
